<svg width="30" height="30" viewBox="0 0 30 30" fill="none" xmlns="http://www.w3.org/2000/svg">
<rect width="30" height="30" rx="5" fill="#FFCF73"/>
<path d="M20.5714 8.00001H17.3571L17.1054 7.41563C17.052 7.2907 16.9699 7.18561 16.8681 7.11218C16.7664 7.03875 16.6491 6.99991 16.5295 7.00001H13.4679C13.3485 6.99947 13.2314 7.03817 13.13 7.11168C13.0287 7.18519 12.9471 7.29053 12.8946 7.41563L12.6429 8.00001H9.42857C9.31491 8.00001 9.2059 8.05268 9.12553 8.14645C9.04515 8.24022 9 8.3674 9 8.50001V9.5C9 9.63261 9.04515 9.75979 9.12553 9.85356C9.2059 9.94733 9.31491 10 9.42857 10H20.5714C20.6851 10 20.7941 9.94733 20.8745 9.85356C20.9548 9.75979 21 9.63261 21 9.5V8.50001C21 8.3674 20.9548 8.24022 20.8745 8.14645C20.7941 8.05268 20.6851 8.00001 20.5714 8.00001ZM10.425 21.5938C10.4454 21.9746 10.5895 22.332 10.8279 22.5932C11.0662 22.8545 11.381 23 11.708 23H18.292C18.619 23 18.9338 22.8545 19.1721 22.5932C19.4105 22.332 19.5546 21.9746 19.575 21.5938L20.1429 11H9.85714L10.425 21.5938Z" fill="#35383a"/>
</svg>